<svg xmlns="http://www.w3.org/2000/svg" xmlns:xlink="http://www.w3.org/1999/xlink" xmlns:inkscape="http://www.inkscape.org/namespaces/inkscape" version="1.1" width="387.25093" height="380.6671" viewBox="0 0 387.25093 380.6671">
<defs>
<clipPath id="clip_1">
<path transform="matrix(1,0,0,-1,-766.37448,730.311)" d="M766.37448 349.64387H1153.6254V730.311H766.37448Z" clip-rule="evenodd"/>
</clipPath>
<clipPath id="clip_2">
<path transform="matrix(1,0,0,-1,-766.37448,730.311)" d="M0 0H1920V1080H0Z"/>
</clipPath>
<path id="font_3_30" d="M.2769928-.009765625C.39698792-.009765625 .5289917 .06123352 .5289917 .20913697 .5289917 .30703736 .47200013 .36495973 .34399415 .4159088L.29599 .43489076C.22200012 .464859 .20399475 .48883058 .20399475 .51979067 .20399475 .55973818 .23699951 .5797119 .27999879 .5797119 .32398988 .5797119 .3600006 .55674746 .3909912 .5028076L.5079956 .56874087C.47399903 .64372256 .39898683 .71972659 .27398683 .71972659 .15098572 .71972659 .04798889 .64471438 .04798889 .52178958 .04798889 .4069214 .1349945 .35498048 .22999573 .3170166L.27398683 .30003358C.34199525 .2730713 .36499024 .25309754 .36499024 .21113587 .36499024 .15620423 .32199098 .13322449 .2749939 .13322449 .20799256 .13322449 .16999817 .1791687 .1499939 .22712708L.021987915 .16818238C.04899597 .06422424 .1519928-.009765625 .2769928-.009765625Z"/>
<path id="font_3_17" d="M.04699707 0H.46699525V.14498902H.20498657V.2861328H.4169922V.42912293H.20498657V.56495669H.45799256V.70996096H.04699707V0Z"/>
<path id="font_3_23" d="M.04699707 0H.46899415V.14498902H.20498657V.70996096H.04699707V0Z"/>
<path id="font_3_26" d="M.40499879-.009765625C.6049957-.009765625 .772995 .13822937 .772995 .35498048 .772995 .5717163 .6049957 .71972659 .40499879 .71972659 .20399475 .71972659 .036987306 .5717163 .036987306 .35498048 .036987306 .13822937 .20399475-.009765625 .40499879-.009765625M.19999695 .35498048C.19999695 .48582459 .29299928 .5697174 .40499879 .5697174 .5169983 .5697174 .6100006 .48582459 .6100006 .35498048 .6100006 .2241211 .5169983 .14022827 .40499879 .14022827 .29299928 .14022827 .19999695 .2241211 .19999695 .35498048Z"/>
<path id="font_3_1" d=""/>
<path id="font_3_19" d="M.4039917-.009765625C.60198977-.009765625 .7659912 .13821411 .72898867 .38978578H.41799928V.25878907H.57598879C.5529938 .16711426 .48399354 .13522339 .4099884 .13522339 .2899933 .13522339 .19999695 .21992493 .19999695 .3547821 .19999695 .4897461 .29299928 .5697174 .4099884 .5697174 .48399354 .5697174 .5439911 .5407257 .58499148 .4807434L.69898989 .5597229C.6259918 .6837158 .5069885 .71972659 .4079895 .71972659 .20799256 .71972659 .036987306 .5767212 .036987306 .3547821 .036987306 .13322449 .20599365-.009765625 .4039917-.009765625Z"/>
<path id="font_3_29" d="M.43099977 0H.59799197L.43598939 .2562561C.5130005 .2932434 .55999758 .3642578 .55999758 .46409608 .55999758 .6149597 .45599366 .70996096 .30499269 .70996096H.04699707V0H.20498657V.22924805H.29100038L.43099977 0M.20498657 .3642578V.56495669H.2889862C.35299684 .56495669 .3999939 .5399933 .3999939 .46409608 .3999939 .3882141 .35299684 .3642578 .2889862 .3642578H.20498657Z"/>
<path id="font_3_36" d="M.27799989 .70996096 .0069885256 0H.17799378L.21798706 .11277771H.5059967L.54599 0H.71699526L.44599916 .70996096H.27799989M.2709961 .25878907 .3619995 .5148773 .45298768 .25878907H.2709961M.30799867 .77168276H.4269867L.5329895 .9296875H.41099549L.30799867 .77168276Z"/>
<path id="font_3_18" d="M.04699707 0H.20498657V.2890625H.43998719V.424057H.20498657V.5659485H.45298768V.70996096H.04699707V0Z"/>
<path id="font_3_21" d="M.04699707 0H.20498657V.70996096H.04699707V0Z"/>
<path id="font_3_15" d="M.40499879-.009765625C.5059967-.009765625 .6239929 .026229859 .69699099 .15022278L.58299258 .22912598C.5419922 .16918946 .48298646 .14022827 .41099549 .14022827 .29599 .14022827 .19999695 .22013855 .19999695 .35498048 .19999695 .4878235 .2939911 .5697174 .4099884 .5697174 .47898866 .5697174 .5419922 .5407562 .58299258 .4808197L.69699099 .55973818C.6239929 .6837158 .5069885 .71972659 .4059906 .71972659 .20599365 .71972659 .036987306 .5767212 .036987306 .35498048 .036987306 .13322449 .20498657-.009765625 .40499879-.009765625Z"/>
<path id="font_3_16" d="M.04699707 0H.32299806C.5130005 0 .6629944 .14698792 .6629944 .3549652 .6629944 .56295779 .5130005 .70996096 .32299806 .70996096H.04699707V0M.20498657 .14898682V.56095889H.31698609C.43699647 .56095889 .49899293 .47595216 .49899293 .3549652 .49899293 .23397827 .43699647 .14898682 .31698609 .14898682H.20498657Z"/>
<path id="font_3_2" d="M.27799989 .70996096 .0069885256 0H.17799378L.21798706 .11277771H.5059967L.54599 0H.71699526L.44599916 .70996096H.27799989M.2709961 .25878907 .3619995 .5148773 .45298768 .25878907H.2709961Z"/>
<path id="font_3_27" d="M.04699707 0H.20498657V.21972656H.30699159C.46099855 .21972656 .5649872 .3157196 .5649872 .46383668 .5649872 .6149597 .46099855 .70996096 .30699159 .70996096H.04699707V0M.20498657 .36471559V.56495669H.2919922C.35598756 .56495669 .40499879 .539917 .40499879 .46383668 .40499879 .3877411 .35598756 .36471559 .2919922 .36471559H.20498657Z"/>
<path id="font_3_37" d="M.27799989 .70996096 .0069885256 0H.17799378L.21798706 .11277771H.5059967L.54599 0H.71699526L.44599916 .70996096H.27799989M.20298767 .9296875 .3039856 .77168276H.4229889L.32499696 .9296875H.20298767M.2709961 .25878907 .3619995 .5148773 .45298768 .25878907H.2709961Z"/>
<path id="font_3_24" d="M.04699707 0H.20498657V.40696717H.20999146L.3769989 0H.49299623L.6599884 .40696717H.6649933V0H.82299807V.70996096H.6489868L.43499757 .20097351 .22099304 .70996096H.04699707V0Z"/>
<clipPath id="clip_4">
<path transform="matrix(1,0,0,-1,-766.37448,730.311)" d="M0 0H1920V1080H0Z"/>
</clipPath>
<clipPath id="clip_5">
<path transform="matrix(1,0,0,-1,-766.37448,730.311)" d="M0 0H1920V1080H0Z"/>
</clipPath>
<clipPath id="clip_6">
<path transform="matrix(1,0,0,-1,-766.37448,730.311)" d="M0 0H1920V1080H0Z"/>
</clipPath>
<clipPath id="clip_7">
<path transform="matrix(1,0,0,-1,-766.37448,730.311)" d="M0 0H1920V1080H0Z"/>
</clipPath>
<clipPath id="clip_8">
<path transform="matrix(1,0,0,-1,-766.37448,730.311)" d="M0 0H1920V1080H0Z"/>
</clipPath>
<clipPath id="clip_9">
<path transform="matrix(1,0,0,-1,-766.37448,730.311)" d="M0 0H1920V1080H0Z"/>
</clipPath>
<clipPath id="clip_10">
<path transform="matrix(1,0,0,-1,-766.37448,730.311)" d="M0 0H1920V1080H0Z"/>
</clipPath>
<clipPath id="clip_11">
<path transform="matrix(1,0,0,-1,-766.37448,730.311)" d="M0 0H1920V1080H0Z"/>
</clipPath>
<clipPath id="clip_12">
<path transform="matrix(1,0,0,-1,-766.37448,730.311)" d="M0 0H1920V1080H0Z"/>
</clipPath>
<clipPath id="clip_13">
<path transform="matrix(1,0,0,-1,-766.37448,730.311)" d="M0 0H1920V1080H0Z"/>
</clipPath>
<path id="font_3_5" d="M.2519989 .30189515 .026992798 0H.519989V.13699341H.29899598L.4059906 .27990724C.46699525 .35984803 .5209961 .42481996 .5209961 .51475527 .5209961 .63171389 .42900086 .71972659 .2809906 .71972659 .115997318 .71972659 .038986207 .6127167 .038986207 .49577333V.4637146H.19599915V.48277284C.19599915 .5567322 .24798584 .5757141 .2789917 .5757141 .3019867 .5757141 .35699464 .5667267 .35699464 .49276734 .35699464 .44380189 .33299256 .41082765 .2519989 .30189515Z"/>
<path id="font_3_3" d="M.40098573-.009765625C.5970001-.009765625 .7649994 .13822937 .7649994 .35498048 .7649994 .57173159 .5970001 .71972659 .40098573 .71972659 .20498657 .71972659 .036987306 .57173159 .036987306 .35498048 .036987306 .13822937 .20498657-.009765625 .40098573-.009765625M.19599915 .35498048C.19599915 .48582459 .2869873 .5757141 .40098573 .5757141 .5149994 .5757141 .60598757 .48582459 .60598757 .35498048 .60598757 .2241211 .5149994 .13423157 .40098573 .13423157 .2869873 .13423157 .19599915 .2241211 .19599915 .35498048Z"/>
<clipPath id="clip_14">
<path transform="matrix(1,0,0,-1,-766.37448,730.311)" d="M0 0H1920V1080H0Z"/>
</clipPath>
<path id="font_15_22" d="M.23399353-.009765625C.35198976-.009765625 .4850006 .052230836 .4850006 .24317932V.70996096H.32699586V.26516725C.32699586 .14622498 .24899292 .14222718 .22599793 .14222718 .17199707 .14222718 .13798523 .1782074 .117996219 .20419312L.016998291 .10223389C.05899048 .036224367 .13198853-.009765625 .23399353-.009765625Z"/>
<path id="font_15_41" d="M.32099916-.009765625C.47200013-.009765625 .59498599 .0872345 .59498599 .26916505V.70996096H.43699647V.26815797C.43699647 .16221619 .37199403 .13822937 .32099916 .13822937 .269989 .13822937 .20498657 .16221619 .20498657 .26815797V.70996096H.04699707V.26916505C.04699707 .0872345 .16899109-.009765625 .32099916-.009765625M.2669983 .77168276H.38598634L.49198915 .9296875H.36999513L.2669983 .77168276Z"/>
<path id="font_15_23" d="M.04699707 0H.46899415V.14498902H.20498657V.70996096H.04699707V0Z"/>
<path id="font_15_21" d="M.04699707 0H.20498657V.70996096H.04699707V0Z"/>
<path id="font_15_2" d="M.27799989 .70996096 .0069885256 0H.17799378L.21798706 .11277771H.5059967L.54599 0H.71699526L.44599916 .70996096H.27799989M.2709961 .25878907 .3619995 .5148773 .45298768 .25878907H.2709961Z"/>
<path id="font_15_1" d=""/>
<path id="font_15_25" d="M.04699707 0H.20498657V.4509735H.20999146L.5069885 0H.6649933V.70996096H.5069885V.25897218H.5019989L.20498657 .70996096H.04699707V0Z"/>
<path id="font_15_16" d="M.04699707 0H.32299806C.5130005 0 .6629944 .14698792 .6629944 .3549652 .6629944 .56295779 .5130005 .70996096 .32299806 .70996096H.04699707V0M.20498657 .14898682V.56095889H.31698609C.43699647 .56095889 .49899293 .47595216 .49899293 .3549652 .49899293 .23397827 .43699647 .14898682 .31698609 .14898682H.20498657Z"/>
<path id="font_15_29" d="M.43099977 0H.59799197L.43598939 .2562561C.5130005 .2932434 .55999758 .3642578 .55999758 .46409608 .55999758 .6149597 .45599366 .70996096 .30499269 .70996096H.04699707V0H.20498657V.22924805H.29100038L.43099977 0M.20498657 .3642578V.56495669H.2889862C.35299684 .56495669 .3999939 .5399933 .3999939 .46409608 .3999939 .3882141 .35299684 .3642578 .2889862 .3642578H.20498657Z"/>
<path id="font_15_17" d="M.04699707 0H.46699525V.14498902H.20498657V.2861328H.4169922V.42912293H.20498657V.56495669H.45799256V.70996096H.04699707V0Z"/>
<path id="font_15_24" d="M.04699707 0H.20498657V.40696717H.20999146L.3769989 0H.49299623L.6599884 .40696717H.6649933V0H.82299807V.70996096H.6489868L.43499757 .20097351 .22099304 .70996096H.04699707V0Z"/>
<path id="font_15_32" d="M.32099916-.009765625C.47200013-.009765625 .59498599 .0872345 .59498599 .26916505V.70996096H.43699647V.26815797C.43699647 .16221619 .37199403 .13822937 .32099916 .13822937 .269989 .13822937 .20498657 .16221619 .20498657 .26815797V.70996096H.04699707V.26916505C.04699707 .0872345 .16899109-.009765625 .32099916-.009765625Z"/>
<path id="font_15_30" d="M.2769928-.009765625C.39698792-.009765625 .5289917 .06123352 .5289917 .20913697 .5289917 .30703736 .47200013 .36495973 .34399415 .4159088L.29599 .43489076C.22200012 .464859 .20399475 .48883058 .20399475 .51979067 .20399475 .55973818 .23699951 .5797119 .27999879 .5797119 .32398988 .5797119 .3600006 .55674746 .3909912 .5028076L.5079956 .56874087C.47399903 .64372256 .39898683 .71972659 .27398683 .71972659 .15098572 .71972659 .04798889 .64471438 .04798889 .52178958 .04798889 .4069214 .1349945 .35498048 .22999573 .3170166L.27398683 .30003358C.34199525 .2730713 .36499024 .25309754 .36499024 .21113587 .36499024 .15620423 .32199098 .13322449 .2749939 .13322449 .20799256 .13322449 .16999817 .1791687 .1499939 .22712708L.021987915 .16818238C.04899597 .06422424 .1519928-.009765625 .2769928-.009765625Z"/>
<path id="font_15_26" d="M.40499879-.009765625C.6049957-.009765625 .772995 .13822937 .772995 .35498048 .772995 .5717163 .6049957 .71972659 .40499879 .71972659 .20399475 .71972659 .036987306 .5717163 .036987306 .35498048 .036987306 .13822937 .20399475-.009765625 .40499879-.009765625M.19999695 .35498048C.19999695 .48582459 .29299928 .5697174 .40499879 .5697174 .5169983 .5697174 .6100006 .48582459 .6100006 .35498048 .6100006 .2241211 .5169983 .14022827 .40499879 .14022827 .29299928 .14022827 .19999695 .2241211 .19999695 .35498048Z"/>
<path id="font_15_15" d="M.40499879-.009765625C.5059967-.009765625 .6239929 .026229859 .69699099 .15022278L.58299258 .22912598C.5419922 .16918946 .48298646 .14022827 .41099549 .14022827 .29599 .14022827 .19999695 .22013855 .19999695 .35498048 .19999695 .4878235 .2939911 .5697174 .4099884 .5697174 .47898866 .5697174 .5419922 .5407562 .58299258 .4808197L.69699099 .55973818C.6239929 .6837158 .5069885 .71972659 .4059906 .71972659 .20599365 .71972659 .036987306 .5767212 .036987306 .35498048 .036987306 .13322449 .20498657-.009765625 .40499879-.009765625Z"/>
<path id="font_15_35" d="M.04499817-.13500977H.54499819V0H.04499817V-.13500977Z"/>
<path id="font_15_20" d="M.47299195 0H.6309967V.70996096H.47299195V.42919923H.20498657V.70996096H.04699707V0H.20498657V.28320313H.47299195V0Z"/>
<path id="font_15_18" d="M.04699707 0H.20498657V.2890625H.43998719V.424057H.20498657V.5659485H.45298768V.70996096H.04699707V0Z"/>
</defs>
<g clip-path="url(#clip_1)">
<g clip-path="url(#clip_2)">
</g>
<use data-text="S" xlink:href="#font_3_30" transform="matrix(15,0,0,-15,27.104432,597.9006)" fill="#c9b294"/>
<use data-text="E" xlink:href="#font_3_17" transform="matrix(15,0,0,-15,38.51941,597.9006)" fill="#c9b294"/>
<use data-text="L" xlink:href="#font_3_23" transform="matrix(15,0,0,-15,49.15442,597.9006)" fill="#c9b294"/>
<use data-text="O" xlink:href="#font_3_26" transform="matrix(15,0,0,-15,58.977968,597.9006)" fill="#c9b294"/>
<use data-text=" " xlink:href="#font_3_1" transform="matrix(15,0,0,-15,74.20294,597.9006)" fill="#c9b294"/>
<use data-text="G" xlink:href="#font_3_19" transform="matrix(15,0,0,-15,80.30792,597.9006)" fill="#c9b294"/>
<use data-text="R" xlink:href="#font_3_29" transform="matrix(15,0,0,-15,95.007938,597.9006)" fill="#c9b294"/>
<use data-text="&#x00c1;" xlink:href="#font_3_36" transform="matrix(15,0,0,-15,107.382938,597.9006)" fill="#c9b294"/>
<use data-text="F" xlink:href="#font_3_18" transform="matrix(15,0,0,-15,121.392948,597.9006)" fill="#c9b294"/>
<use data-text="I" xlink:href="#font_3_21" transform="matrix(15,0,0,-15,131.81793,597.9006)" fill="#c9b294"/>
<use data-text="C" xlink:href="#font_3_15" transform="matrix(15,0,0,-15,138.74793,597.9006)" fill="#c9b294"/>
<use data-text="O" xlink:href="#font_3_26" transform="matrix(15,0,0,-15,152.45795,597.9006)" fill="#c9b294"/>
<use data-text=" " xlink:href="#font_3_1" transform="matrix(15,0,0,-15,167.68292,597.9006)" fill="#c9b294"/>
<use data-text="D" xlink:href="#font_3_16" transform="matrix(15,0,0,-15,173.7879,597.9006)" fill="#c9b294"/>
<use data-text="E" xlink:href="#font_3_17" transform="matrix(15,0,0,-15,187.2879,597.9006)" fill="#c9b294"/>
<use data-text=" " xlink:href="#font_3_1" transform="matrix(15,0,0,-15,197.8479,597.9006)" fill="#c9b294"/>
<use data-text="A" xlink:href="#font_3_2" transform="matrix(15,0,0,-15,203.95288,597.9006)" fill="#c9b294"/>
<use data-text="P" xlink:href="#font_3_27" transform="matrix(15,0,0,-15,217.96289,597.9006)" fill="#c9b294"/>
<use data-text="O" xlink:href="#font_3_26" transform="matrix(15,0,0,-15,229.91645,597.9006)" fill="#c9b294"/>
<use data-text="I" xlink:href="#font_3_21" transform="matrix(15,0,0,-15,245.21643,597.9006)" fill="#c9b294"/>
<use data-text="O" xlink:href="#font_3_26" transform="matrix(15,0,0,-15,252.14643,597.9006)" fill="#c9b294"/>
<use data-text=" " xlink:href="#font_3_1" transform="matrix(15,0,0,-15,267.37153,597.9006)" fill="#c9b294"/>
<use data-text="&#x00c0;" xlink:href="#font_3_37" transform="matrix(15,0,0,-15,273.47663,597.9006)" fill="#c9b294"/>
<use data-text=" " xlink:href="#font_3_1" transform="matrix(15,0,0,-15,287.41169,597.9006)" fill="#c9b294"/>
<use data-text="M" xlink:href="#font_3_24" transform="matrix(15,0,0,-15,293.51679,597.9006)" fill="#c9b294"/>
<use data-text="A" xlink:href="#font_3_2" transform="matrix(15,0,0,-15,309.71675,597.9006)" fill="#c9b294"/>
<use data-text="R" xlink:href="#font_3_29" transform="matrix(15,0,0,-15,323.72676,597.9006)" fill="#c9b294"/>
<use data-text="C" xlink:href="#font_3_15" transform="matrix(15,0,0,-15,335.57673,597.9006)" fill="#c9b294"/>
<use data-text="A" xlink:href="#font_3_2" transform="matrix(15,0,0,-15,349.28669,597.9006)" fill="#c9b294"/>
<path transform="matrix(1,0,0,-1,100.37976,36.49225)" d="M0 0 10.898 6.088 12.101 3.936 1.203-2.152 5.076-9.084 2.924-10.285-6.024 5.727 8.144 13.643 9.362 11.461-2.654 4.748Z" fill="#c9b294"/>
<g clip-path="url(#clip_4)">
<path transform="matrix(1,0,0,-1,142.93848,19.074158)" d="M0 0C1.747-4.914-1.199-10.475-6.594-12.393-11.989-14.311-17.813-11.867-19.56-6.957-21.318-2.012-18.332 3.531-12.937 5.447-7.542 7.365-1.757 4.941 0 0M-7.429-10.045C-3.33-8.588-1.035-4.443-2.32-.826-3.616 2.82-8.013 4.584-12.111 3.127-16.241 1.658-18.506-2.473-17.209-6.119-15.923-9.736-11.559-11.514-7.429-10.045" fill="#c9b294"/>
<path transform="matrix(1,0,0,-1,166.56256,23.771546)" d="M0 0C-5.619-.939-10.896 2.498-11.752 7.645-12.614 12.824-8.729 17.752-3.11 18.69 .111 19.223 3.298 18.391 5.613 16.375L6.256 15.832 3.761 14.641C2.036 16.039-.301 16.625-2.7 16.225-6.93 15.522-9.888 11.85-9.259 8.061-8.633 4.303-4.645 1.787-.415 2.49 1.985 2.891 4.005 4.201 5.185 6.084L7.932 5.762 7.5 5.039C5.963 2.383 3.221 .533 0 0" fill="#c9b294"/>
</g>
<path transform="matrix(1,0,0,-1,194.02454,3)" d="M0 0 2.175-.02 11.745-18.434 8.802-18.41 6.503-13.975-4.566-13.879-6.94-18.273-9.884-18.25ZM1.057-3.498-3.234-11.428 5.213-11.5Z" fill="#c9b294"/>
<g clip-path="url(#clip_5)">
<path transform="matrix(1,0,0,-1,224.54553,24.478577)" d="M0 0C-5.612 .984-9.446 5.982-8.543 11.121-7.635 16.291-2.333 19.65 3.279 18.664 6.495 18.096 9.225 16.254 10.738 13.584L11.163 12.859 8.415 12.561C7.252 14.455 5.243 15.783 2.847 16.203-1.378 16.945-5.388 14.465-6.052 10.682-6.712 6.932-3.788 3.234 .437 2.49 2.833 2.07 5.175 2.633 6.913 4.018L9.397 2.801 8.75 2.266C6.417 .27 3.216-.566 0 0" fill="#c9b294"/>
<path transform="matrix(1,0,0,-1,251.87165,31.845887)" d="M0 0C-5.37 1.887-8.334 7.44-6.605 12.356-4.865 17.305 .91 19.75 6.281 17.859 9.358 16.777 11.75 14.512 12.804 11.633L13.106 10.85 10.346 11.006C9.51 13.063 7.747 14.701 5.454 15.508 1.41 16.93-2.948 15.139-4.221 11.518-5.483 7.928-3.205 3.805 .838 2.381 3.131 1.574 5.532 1.75 7.47 2.83L9.721 1.223 8.996 .801C6.37-.783 3.077-1.082 0 0" fill="#c9b294"/>
</g>
<path transform="matrix(1,0,0,-1,280.88948,24.171998)" d="M0 0-8.28-16.35-10.477-15.238-2.197 1.111Z" fill="#c9b294"/>
<path transform="matrix(1,0,0,-1,301.0794,36.1817)" d="M0 0 1.791-1.238-.626-21.85-3.048-20.176-2.461-15.217-11.568-8.926-15.999-11.231-18.422-9.559ZM-1.086-3.49-9.089-7.643-2.14-12.443Z" fill="#c9b294"/>
<g clip-path="url(#clip_6)">
<path transform="matrix(1,0,0,-1,313.90608,70.76776)" d="M0 0C-2.738 2.691-4.481 5.619-5.025 8.441L-2.587 8.914C-2.138 6.588-.623 4.113 1.749 1.779 2.911 .637 6.924-2.994 9.032-.85 9.727-.143 10.67 .814 6.035 5.82 3.364 8.715-.312 12.732 2.962 16.065 5.229 18.367 9.24 17.473 12.958 13.816 15.216 11.598 16.706 9.191 17.247 6.865L14.854 6.301C14.407 8.176 13.146 10.178 11.23 12.061 8.63 14.617 5.953 15.547 4.742 14.315 3.643 13.197 3.812 11.908 7.853 7.486 11.004 4.074 13.839 .48 10.812-2.6 9.599-3.832 6.135-6.033 0 0" fill="#c9b294"/>
<path transform="matrix(1,0,0,-1,361.8133,120.08826)" d="M0 0C-.348-.861-.904-1.498-1.72-1.869-2.565-2.25-3.411-2.246-4.258-1.928-5.134-1.621-5.743-1.055-6.126-.209-6.495 .609-6.534 1.469-6.185 2.33-5.867 3.176-5.298 3.783-4.453 4.168-3.637 4.539-2.804 4.563-1.928 4.256-1.081 3.94-.459 3.342-.089 2.524 .294 1.68 .32 .848 0 0" fill="#c9b294"/>
</g>
<path transform="matrix(1,0,0,-1,375.56098,178.06879)" d="M0 0 .697-12.426-1.762-12.562-2.459-.139-7.889-.443-7.119-14.146-9.611-14.285-10.52 1.908 7.782 2.934 8.69-13.258 6.2-13.398 5.43 .305Z" fill="#c9b294"/>
<path transform="matrix(1,0,0,-1,363.37544,223.28769)" d="M0 0 .295 2.479 16.686 15.096 2.005 16.842 2.3 19.32 20.509 17.152 20.214 14.674 20.183 14.68 3.822 2.059 18.505 .311 18.209-2.168Z" fill="#c9b294"/>
<path transform="matrix(1,0,0,-1,373.2895,248.61188)" d="M0 0-15.179 4.537-14.473 6.9 .706 2.359 2.935 9.809 5.327 9.094 .154-8.201-2.238-7.484Z" fill="#c9b294"/>
<g clip-path="url(#clip_7)">
<path transform="matrix(1,0,0,-1,368.14936,270.12559)" d="M0 0-5.47-11.152C-6.837-13.941-10.222-15.098-13.009-13.731-15.654-12.434-16.81-9.334-15.784-6.666L-24.421-8.133-23.068-5.373-14.475-3.918-11.204 2.75-17.556 5.863-16.471 8.08ZM-11.924-11.518C-10.372-12.277-8.473-11.604-7.712-10.053L-3.328-1.113-8.991 1.666-13.375-7.275C-14.136-8.828-13.477-10.756-11.924-11.518" fill="#c9b294"/>
</g>
<path transform="matrix(1,0,0,-1,348.12593,304.84037)" d="M0 0-1.282-1.758-21.824 1.189-20.089 3.566-15.147 2.851-8.623 11.793-10.813 16.281-9.079 18.66ZM-3.458 1.178-7.405 9.281-12.384 2.459Z" fill="#c9b294"/>
<g clip-path="url(#clip_8)">
<path transform="matrix(1,0,0,-1,331.62727,324.9987)" d="M0 0-6.426-6.152C-10.079-9.649-15.893-9.498-19.389-5.844-22.863-2.217-22.758 3.6-19.106 7.096L-12.678 13.246ZM-17.609-4.141C-15.042-6.822-10.811-6.895-8.151-4.348L-3.505 .1-12.732 9.74-17.379 5.293C-20.039 2.748-20.154-1.481-17.609-4.141" fill="#c9b294"/>
</g>
<path transform="matrix(1,0,0,-1,301.6458,350.27818)" d="M0 0-1.798-1.225-20.151 8.463-17.718 10.119-13.303 7.781-4.15 14.008-4.703 18.973-2.268 20.629ZM-2.86 2.272-3.849 11.234-10.833 6.482Z" fill="#c9b294"/>
<g clip-path="url(#clip_9)">
<path transform="matrix(1,0,0,-1,264.78779,349.80558)" d="M0 0C3.495 1.592 6.854 2.17 9.685 1.666L9.252-.783C6.918-.367 4.064-.893 1.035-2.271-.452-2.947-5.282-5.393-4.035-8.131-3.625-9.031-3.066-10.256 3.269-7.725 6.932-6.266 12.002-4.277 13.938-8.529 15.276-11.471 13.003-14.896 8.255-17.057 5.371-18.369 2.588-18.896 .223-18.566L.556-16.131C2.465-16.387 4.788-15.928 7.235-14.814 10.555-13.303 12.381-11.135 11.665-9.562 11.017-8.137 9.753-7.832 4.173-10.018-.144-11.736-4.519-13.096-6.307-9.162-7.023-7.59-7.835-3.564 0 0" fill="#c9b294"/>
<path transform="matrix(1,0,0,-1,201.48352,376.7881)" d="M0 0C-.676 .635-1.069 1.383-1.12 2.279-1.171 3.205-.861 3.992-.258 4.666 .344 5.371 1.093 5.734 2.02 5.785 2.914 5.836 3.73 5.561 4.408 4.924 5.082 4.32 5.444 3.57 5.495 2.645 5.545 1.75 5.267 .965 4.666 .258 4.061-.414 3.281-.779 2.385-.828 1.459-.879 .674-.602 0 0" fill="#c9b294"/>
</g>
<path transform="matrix(1,0,0,-1,134.89063,374.60438)" d="M0 0-2.066 .684-5.553 21.147-2.755 20.221-1.923 15.297 8.589 11.822 12.193 15.283 14.988 14.359ZM.061 3.652 6.571 9.893-1.451 12.545Z" fill="#c9b294"/>
<path transform="matrix(1,0,0,-1,102.302127,339.69419)" d="M0 0 2.189-1.199 7.778-21.109 14.876-8.143 17.066-9.34 8.263-25.424 6.074-24.227 6.089-24.199 .484-4.314-6.613-17.281-8.803-16.082Z" fill="#c9b294"/>
<path transform="matrix(1,0,0,-1,75.06366,339.34458)" d="M0 0 9.915 12.361 11.837 10.816 1.922-1.541 7.99-6.408 6.428-8.359-7.655 2.939-6.092 4.885Z" fill="#c9b294"/>
<path transform="matrix(1,0,0,-1,61.361024,319.34828)" d="M0 0-8.327 9.256-6.495 10.906 1.832 1.646 5.878 5.285-3.305 15.496-1.448 17.166 9.404 5.1-4.233-7.166-15.085 4.9-13.23 6.57-4.047-3.639Z" fill="#c9b294"/>
<g clip-path="url(#clip_10)">
<path transform="matrix(1,0,0,-1,37.235536,302.59037)" d="M0 0-6.524 10.557C-8.154 13.195-7.333 16.674-4.693 18.307-2.053 19.937 1.424 19.115 3.055 16.475L8.283 8.014 14.298 11.728 15.592 9.635ZM-3.398 16.211C-4.869 15.303-5.326 13.365-4.402 11.869L.827 3.408 6.188 6.717 .96 15.182C.035 16.678-1.93 17.119-3.398 16.211" fill="#c9b294"/>
</g>
<path transform="matrix(1,0,0,-1,19.159729,269.85609)" d="M0 0-.863 1.998 12.113 18.201 13.28 15.498 10.152 11.602 14.545 1.436 19.526 1.043 20.693-1.658ZM2.772 2.381 11.761 1.664 8.411 9.42Z" fill="#c9b294"/>
<g clip-path="url(#clip_11)">
<path transform="matrix(1,0,0,-1,26.592957,233.77988)" d="M0 0C.899-3.732 .831-7.139-.2-9.824L-2.521-8.937C-1.672-6.723-1.647-3.818-2.427-.586-2.809 1.004-4.294 6.207-7.219 5.504-8.183 5.272-9.49 4.955-8.205-1.746-7.469-5.619-6.475-10.975-11.016-12.07-14.16-12.826-17.092-9.945-18.314-4.873-19.057-1.795-19.048 1.039-18.275 3.301L-15.946 2.512C-16.559 .686-16.548-1.684-15.918-4.297-15.064-7.842-13.282-10.047-11.601-9.643-10.078-9.275-9.539-8.094-10.63-2.199-11.499 2.365-12.003 6.918-7.804 7.93-6.123 8.334-2.016 8.369 0 0" fill="#c9b294"/>
</g>
<path transform="matrix(1,0,0,-1,6.059021,205.99066)" d="M0 0 15.802 1.152 15.981-1.307 .179-2.459 .744-10.217-1.747-10.397-3.059 7.609-.568 7.789Z" fill="#c9b294"/>
<g clip-path="url(#clip_12)">
<path transform="matrix(1,0,0,-1,14.050232,166.72119)" d="M0 0C5.194-.475 9.011-5.478 8.493-11.184 7.974-16.883 3.314-21.152-1.879-20.678-7.104-20.203-10.887-15.17-10.369-9.469-9.851-3.766-5.226 .473 0 0M6.008-10.955C6.402-6.621 3.601-2.803-.223-2.453-4.079-2.103-7.522-5.357-7.917-9.689-8.312-14.055-5.508-17.846-1.654-18.195 2.17-18.541 5.611-15.32 6.008-10.955" fill="#c9b294"/>
<path transform="matrix(1,0,0,-1,27.767762,148.70545)" d="M0 0C-1.001-3.707-2.694-6.664-4.886-8.523L-6.497-6.631C-4.689-5.098-3.277-2.562-2.411 .65-1.984 2.225-.792 7.504-3.696 8.289-4.654 8.547-5.951 8.897-8.036 2.4-9.247-1.348-10.942-6.525-15.451-5.309-18.572-4.467-19.763-.531-18.404 4.504-17.578 7.563-16.213 10.043-14.452 11.654L-12.785 9.846C-14.2 8.539-15.325 6.455-16.026 3.859-16.976 .34-16.469-2.449-14.801-2.898-13.287-3.309-12.249-2.527-10.379 3.166-8.955 7.588-7.215 11.824-3.045 10.697-1.376 10.246 2.242 8.309 0 0" fill="#c9b294"/>
<path transform="matrix(1,0,0,-1,47.251527,82.74225)" d="M0 0C.921 .117 1.749-.055 2.47-.588 3.218-1.139 3.627-1.875 3.764-2.77 3.925-3.684 3.728-4.492 3.178-5.24 2.647-5.961 1.914-6.416 .994-6.533 .099-6.67-.709-6.473-1.457-5.924-2.179-5.391-2.607-4.678-2.77-3.764-2.905-2.871-2.689-2.035-2.159-1.313-1.608-.566-.895-.137 0 0" fill="#c9b294"/>
</g>
<path transform="matrix(1,0,0,-1,-766.37448,730.311)" d="M947.868 619.189H943.388V573.96206H947.868Z" fill="#c9b294"/>
<path transform="matrix(1,0,0,-1,-766.37448,730.311)" d="M976.616 619.189H972.135V573.96206H976.616Z" fill="#c9b294"/>
<path transform="matrix(1,0,0,-1,-766.37448,730.311)" d="M932.757 604.789H928.27706V588.363H932.757Z" fill="#c9b294"/>
<path transform="matrix(1,0,0,-1,-766.37448,730.311)" d="M991.728 604.789H987.24807V588.363H991.728Z" fill="#c9b294"/>
<path transform="matrix(1,0,0,-1,-766.37448,730.311)" d="M957.762 441.641H962.242V632.013H957.762Z" fill="#c9b294"/>
<g clip-path="url(#clip_13)">
<path transform="matrix(1,0,0,-1,223.67194,244.68027)" d="M0 0C-.542-.492-2.218-1.914-2.218-1.914-22.538-20.009-22.239-34.9-22.239-34.9-22.239-34.9-6.107-36.694 14.534-18.474L16.56-16.655C36.242 1.595 34.199 14.989 34.199 14.989 34.199 14.989 16.908 15.348 0 0M22.012 7.712-13.519-23.695C-12.562-21.207 2.775-.1 22.012 7.712M-10.052-27.623 25.476 3.781C22.814-.792 11.698-18.793-10.052-27.623" fill="#c9b294"/>
<path transform="matrix(1,0,0,-1,221.07587,208.38245)" d="M0 0C-.496-.487-2.034-1.899-2.034-1.899-20.651-19.834-19.816-33.963-19.816-33.963-19.816-33.963-4.437-35.07 14.48-17.004L16.336-15.202C34.34 2.857 31.905 15.499 31.905 15.499 31.905 15.499 15.48 15.2 0 0M20.607 8.138-11.954-23.001C-11.138-20.603 2.637 .008 20.607 8.138M-8.518-26.603 24.04 4.534C21.684 .093 11.799-17.412-8.518-26.603" fill="#c9b294"/>
<path transform="matrix(1,0,0,-1,219.46808,170.08515)" d="M0 0C-.462-.472-1.894-1.84-1.894-1.84-19.222-19.205-18.165-32.595-18.165-32.595-18.165-32.595-3.553-33.357 14.057-15.862L15.783-14.118C32.528 3.353 29.981 15.302 29.981 15.302 29.981 15.302 14.403 14.711 0 0M19.399 8.107-10.911-22.047C-10.182-19.756 2.502 .057 19.399 8.107M-7.584-25.4 22.724 4.752C20.571 .494 11.521-16.299-7.584-25.4" fill="#c9b294"/>
<path transform="matrix(1,0,0,-1,129.38385,229.69168)" d="M0 0C0 0-2.042-13.393 17.639-31.644L19.665-33.462C40.306-51.683 56.439-49.888 56.439-49.888 56.439-49.888 56.737-34.997 36.417-16.902 36.417-16.902 34.741-15.481 34.199-14.989 17.292 .359 0 0 0 0M47.718-38.684 12.188-7.277C31.425-15.088 46.762-36.195 47.718-38.684M8.724-11.207 44.252-42.612C22.502-33.781 11.385-15.78 8.724-11.207" fill="#c9b294"/>
<path transform="matrix(1,0,0,-1,134.27393,192.88336)" d="M0 0C0 0-2.435-12.642 15.57-30.702L17.425-32.503C36.342-50.569 51.721-49.462 51.721-49.462 51.721-49.462 52.557-35.333 33.939-17.398 33.939-17.398 32.402-15.986 31.905-15.499 16.426-.299 0 0 0 0M43.859-38.5 11.298-7.361C29.268-15.491 43.044-36.102 43.859-38.5M7.865-10.965 40.424-42.102C20.106-32.911 10.222-15.406 7.865-10.965" fill="#c9b294"/>
<path transform="matrix(1,0,0,-1,137.80585,154.78266)" d="M0 0C0 0-2.546-11.949 14.198-29.42L15.925-31.164C33.535-48.66 48.147-47.897 48.147-47.897 48.147-47.897 49.203-34.508 31.876-17.143 31.876-17.143 30.443-15.774 29.981-15.302 15.579-.591 0 0 0 0M40.892-37.349 10.582-7.196C27.479-15.246 40.163-35.058 40.892-37.349M7.257-10.551 37.565-40.702C18.46-31.602 9.41-14.809 7.257-10.551" fill="#c9b294"/>
</g>
<use data-text="2" xlink:href="#font_3_5" transform="matrix(15,0,0,-15,1020.241,-207.0224)" fill="#c9b294"/>
<use data-text="0" xlink:href="#font_3_3" transform="matrix(15,0,0,-15,1031.596,-207.0224)" fill="#c9b294"/>
<g clip-path="url(#clip_14)">
<use data-text="J" xlink:href="#font_15_22" transform="matrix(15,0,0,-15,-656.2997,599.64419)" fill="#c9b294"/>
<use data-text="&#x00da;" xlink:href="#font_15_41" transform="matrix(15,0,0,-15,-645.1697,599.64419)" fill="#c9b294"/>
<use data-text="L" xlink:href="#font_15_23" transform="matrix(15,0,0,-15,-632.38967,599.64419)" fill="#c9b294"/>
<use data-text="I" xlink:href="#font_15_21" transform="matrix(15,0,0,-15,-621.7997,599.64419)" fill="#c9b294"/>
<use data-text="A" xlink:href="#font_15_2" transform="matrix(15,0,0,-15,-614.8696,599.64419)" fill="#c9b294"/>
<use data-text=" " xlink:href="#font_15_1" transform="matrix(15,0,0,-15,-600.9347,599.64419)" fill="#c9b294"/>
<use data-text="A" xlink:href="#font_15_2" transform="matrix(15,0,0,-15,-594.82968,599.64419)" fill="#c9b294"/>
<use data-text="N" xlink:href="#font_15_25" transform="matrix(15,0,0,-15,-580.8197,599.64419)" fill="#c9b294"/>
<use data-text="D" xlink:href="#font_15_16" transform="matrix(15,0,0,-15,-566.9897,599.64419)" fill="#c9b294"/>
<use data-text="R" xlink:href="#font_15_29" transform="matrix(15,0,0,-15,-553.4897,599.64419)" fill="#c9b294"/>
<use data-text="A" xlink:href="#font_15_2" transform="matrix(15,0,0,-15,-541.1147,599.64419)" fill="#c9b294"/>
<use data-text="D" xlink:href="#font_15_16" transform="matrix(15,0,0,-15,-527.1047,599.64419)" fill="#c9b294"/>
<use data-text="E" xlink:href="#font_15_17" transform="matrix(15,0,0,-15,-513.6047,599.64419)" fill="#c9b294"/>
<path transform="matrix(1,0,0,-1,-656.37448,546.97769)" stroke-width="2" stroke-linecap="butt" stroke-miterlimit="4" stroke-linejoin="miter" fill="none" stroke="#404f66" d="M0 0H1700"/>
<use data-text="M" xlink:href="#font_15_24" transform="matrix(15,0,0,-15,-656.37448,-207.0224)" fill="#c9b294"/>
<use data-text="A" xlink:href="#font_15_2" transform="matrix(15,0,0,-15,-640.32449,-207.0224)" fill="#c9b294"/>
<use data-text="N" xlink:href="#font_15_25" transform="matrix(15,0,0,-15,-626.4645,-207.0224)" fill="#c9b294"/>
<use data-text="U" xlink:href="#font_15_32" transform="matrix(15,0,0,-15,-612.7844,-207.0224)" fill="#c9b294"/>
<use data-text="A" xlink:href="#font_15_2" transform="matrix(15,0,0,-15,-600.60446,-207.0224)" fill="#c9b294"/>
<use data-text="L" xlink:href="#font_15_23" transform="matrix(15,0,0,-15,-586.74447,-207.0224)" fill="#c9b294"/>
<use data-text=" " xlink:href="#font_15_1" transform="matrix(15,0,0,-15,-576.30447,-207.0224)" fill="#c9b294"/>
<use data-text="D" xlink:href="#font_15_16" transform="matrix(15,0,0,-15,-570.2744,-207.0224)" fill="#c9b294"/>
<use data-text="E" xlink:href="#font_15_17" transform="matrix(15,0,0,-15,-556.92446,-207.0224)" fill="#c9b294"/>
<use data-text=" " xlink:href="#font_15_1" transform="matrix(15,0,0,-15,-546.43948,-207.0224)" fill="#c9b294"/>
<use data-text="U" xlink:href="#font_15_32" transform="matrix(15,0,0,-15,-540.4094,-207.0224)" fill="#c9b294"/>
<use data-text="S" xlink:href="#font_15_30" transform="matrix(15,0,0,-15,-527.7794,-207.0224)" fill="#c9b294"/>
<use data-text="O" xlink:href="#font_15_26" transform="matrix(15,0,0,-15,-516.5894,-207.0224)" fill="#c9b294"/>
<use data-text=" " xlink:href="#font_15_1" transform="matrix(15,0,0,-15,-501.43943,-207.0224)" fill="#c9b294"/>
<use data-text="D" xlink:href="#font_15_16" transform="matrix(15,0,0,-15,-495.40943,-207.0224)" fill="#c9b294"/>
<use data-text="A" xlink:href="#font_15_2" transform="matrix(15,0,0,-15,-483.03443,-207.0224)" fill="#c9b294"/>
<use data-text=" " xlink:href="#font_15_1" transform="matrix(15,0,0,-15,-469.17445,-207.0224)" fill="#c9b294"/>
<use data-text="M" xlink:href="#font_15_24" transform="matrix(15,0,0,-15,-463.14445,-207.0224)" fill="#c9b294"/>
<use data-text="A" xlink:href="#font_15_2" transform="matrix(15,0,0,-15,-447.09446,-207.0224)" fill="#c9b294"/>
<use data-text="R" xlink:href="#font_15_29" transform="matrix(15,0,0,-15,-433.23445,-207.0224)" fill="#c9b294"/>
<use data-text="C" xlink:href="#font_15_15" transform="matrix(15,0,0,-15,-421.53443,-207.0224)" fill="#c9b294"/>
<use data-text="A" xlink:href="#font_15_2" transform="matrix(15,0,0,-15,-407.97444,-207.0224)" fill="#c9b294"/>
<use data-text="_" xlink:href="#font_15_35" transform="matrix(15,0,0,-15,-394.11445,-207.0224)" fill="#c9b294"/>
<use data-text="C" xlink:href="#font_15_15" transform="matrix(15,0,0,-15,998.3055,597.9076)" fill="#c9b294"/>
<use data-text="H" xlink:href="#font_15_20" transform="matrix(15,0,0,-15,1012.3155,597.9076)" fill="#c9b294"/>
<use data-text="E" xlink:href="#font_15_17" transform="matrix(15,0,0,-15,1025.6355,597.9076)" fill="#c9b294"/>
<use data-text="F" xlink:href="#font_15_18" transform="matrix(15,0,0,-15,1036.2705,597.9076)" fill="#c9b294"/>
</g>
</g>
</svg>
